HIERARCHY
ROOT root
{
	OFFSET	0	13.1	24.9
	CHANNELS 6  Xposition Yposition Zposition Xrotation Yrotation Zrotation
	JOINT spine_1
	{
		OFFSET	0	9.99999	0
		CHANNELS 3  Xrotation Yrotation Zrotation
		JOINT spine_2
		{
			OFFSET	0	112	-10
			CHANNELS 3  Xrotation Yrotation Zrotation
			JOINT spine_3
			{
				OFFSET	0	206.5	19.3
				CHANNELS 3  Xrotation Yrotation Zrotation
				JOINT spine_4
				{
					OFFSET	0	110.4	14.6
					CHANNELS 3  Xrotation Yrotation Zrotation
					JOINT neck_1
					{
						OFFSET	0	71.8	-50.3
						CHANNELS 3  Xrotation Yrotation Zrotation
						JOINT neck_2
						{
							OFFSET	0	86.2	-25.8
							CHANNELS 3  Xrotation Yrotation Zrotation
							JOINT head_ee
							{
								OFFSET	0	179.8	-8.7
								CHANNELS 3  Xrotation Yrotation Zrotation
								End Site
								{
									OFFSET	1	0	0
								}
							}
						}
					}
					JOINT left_clavicle
					{
						OFFSET	-43.2	22.4	-70.8
						CHANNELS 3  Xrotation Yrotation Zrotation
						JOINT left_shoulder
						{
							OFFSET	-93.9	-5.79999	48.7
							CHANNELS 3  Xrotation Yrotation Zrotation
							JOINT left_elbow
							{
								OFFSET	-291.4	-30.8	15.2
								CHANNELS 3  Xrotation Yrotation Zrotation
								JOINT left_lowarm_twist
								{
									OFFSET	-110.7	-3.89999	13.6
									CHANNELS 3  Xrotation Yrotation Zrotation
									JOINT left_hand
									{
										OFFSET	-110.7	-3.89999	13.6
										CHANNELS 3  Xrotation Yrotation Zrotation
										JOINT left_ee
										{
											OFFSET	-80.8	-5.10001	12.1
											CHANNELS 3  Xrotation Yrotation Zrotation
											End Site
											{
												OFFSET	1	0	0
											}
										}
									}
								}
							}
						}
					}
					JOINT right_clavicle
					{
						OFFSET	43.2	22.4	-70.8
						CHANNELS 3  Xrotation Yrotation Zrotation
						JOINT right_shoulder
						{
							OFFSET	93.9	-5.79999	48.7
							CHANNELS 3  Xrotation Yrotation Zrotation
							JOINT right_elbow
							{
								OFFSET	291.4	-30.8	15.2
								CHANNELS 3  Xrotation Yrotation Zrotation
								JOINT right_lowarm_twist
								{
									OFFSET	110.7	-3.89999	13.6
									CHANNELS 3  Xrotation Yrotation Zrotation
									JOINT right_hand
									{
										OFFSET	110.7	-3.89999	13.6
										CHANNELS 3  Xrotation Yrotation Zrotation
										JOINT right_ee
										{
											OFFSET	80.8	-5.10001	12.1
											CHANNELS 3  Xrotation Yrotation Zrotation
											End Site
											{
												OFFSET	1	0	0
											}
										}
									}
								}
							}
						}
					}
				}
			}
		}
	}
	JOINT left_hip
	{
		OFFSET	-82.8	-127.5	0.300001
		CHANNELS 3  Xrotation Yrotation Zrotation
		JOINT left_knee
		{
			OFFSET	-28.2	-396.7	2.2
			CHANNELS 3  Xrotation Yrotation Zrotation
			JOINT left_ankle
			{
				OFFSET	-11.7	-411.3	35.4
				CHANNELS 3  Xrotation Yrotation Zrotation
				JOINT left_toes
				{
					OFFSET	0	-60	-88.6
					CHANNELS 3  Xrotation Yrotation Zrotation
					JOINT left_foot_ee
					{
						OFFSET	-22.5	-16.5	-42.2
						CHANNELS 3  Xrotation Yrotation Zrotation
						End Site
						{
							OFFSET	1	0	0
						}
					}
				}
			}
		}
	}
	JOINT right_hip
	{
		OFFSET	82.8	-127.5	0.300001
		CHANNELS 3  Xrotation Yrotation Zrotation
		JOINT right_knee
		{
			OFFSET	28.2	-396.7	2.2
			CHANNELS 3  Xrotation Yrotation Zrotation
			JOINT right_ankle
			{
				OFFSET	11.7	-411.3	35.4
				CHANNELS 3  Xrotation Yrotation Zrotation
				JOINT right_toes
				{
					OFFSET	0	-60	-88.6
					CHANNELS 3  Xrotation Yrotation Zrotation
					JOINT right_foot_ee
					{
						OFFSET	22.5	-16.5	-42.2
						CHANNELS 3  Xrotation Yrotation Zrotation
						End Site
						{
							OFFSET	1	0	0
						}
					}
				}
			}
		}
	}
}
MOTION
Frames: 15
Frame Time: 0.02
1372.05 701.618 -1475.22 -21.5532885489 47.5882036229 20.6360370107 8.03695 -0.484674 -2.19529 8.03957 -0.344035 -2.22167 8.04831 -0.185104 -2.2405 8.04171 -0.536542 -2.1832 -16.0694 -4.3286 5.25866 -16.1201 -11.324 3.42981 -0.0 0.0 -0.0 12.4564 -25.1128 24.5247 -17.3649 -9.57973 57.4177 2.15932 -46.9218 0.937238 10.3504 0.248101 -1.2971 -2.68479 -11.8051 -23.7662 -0.0 0.0 -0.0 2.71267 -19.6527 -6.30817 -47.5949 37.4055 -52.7852 0.421032 11.7813 -0.0434401 -1.74995 0.0649358 -0.214023 4.19158 11.7558 -23.9046 0.0 0.0 0.0 6.37361 9.00693 -5.14058 -12.8212 0.312088 1.93876 39.7514 -8.60709 -4.9746 20.9432 -0.0 -0.0 -0.0 0.0 -0.0 38.0946 11.7664 -3.81407 3.74672 0.172323 0.548949 25.8928 -8.79141 3.43607 32.2001 -0.0 -0.0 0.0 0.0 0.0 
1365.49891951 702.514 -1494.08892536 -23.0480931688 47.7376980138 21.600618227 8.22665 -0.327267 -2.06235 8.22899 -0.1954 -2.07899 8.23192 -0.0535838 -2.08746 8.22604 -0.382516 -2.05283 -14.6135 -5.26823 5.269 -14.6801 -13.2251 3.27106 -0.0 0.0 -0.0 12.4156 -25.6193 24.3751 -19.289 -9.71009 57.6501 2.17729 -47.1586 0.950393 15.7527 0.283619 -1.98595 -2.74033 -12.9663 -24.682 -0.0 0.0 -0.0 2.48131 -19.6152 -5.96277 -45.7878 38.1675 -53.1711 0.471049 13.1348 -0.0542308 -0.0321828 0.00113518 -0.00395335 4.84975 6.51017 -31.5115 0.0 0.0 0.0 9.71924 7.76438 -5.48557 -21.1258 0.280559 3.21144 39.6162 -12.7882 -5.06488 30.8117 -0.0 -0.0 -0.0 0.0 -0.0 37.5059 11.8016 -5.0439 4.41809 0.206986 0.646094 18.8398 -8.28456 2.58629 40.1922 -0.0 -0.0 0.0 0.0 0.0 
1354.21464017 703.686 -1513.76262627 -24.2749317638 47.904637947 22.2746648729 8.30049 -0.228697 -1.98318 8.30267 -0.102065 -1.99371 8.30236 0.031339 -1.99607 8.29691 -0.284234 -1.97599 -13.4688 -5.96205 5.30908 -13.5375 -14.6393 3.22698 -0.0 0.0 -0.0 12.1892 -24.8551 23.9392 -21.1598 -9.45014 58.0187 2.19177 -47.3478 0.961024 20.5675 0.26048 -2.60032 -3.09976 -15.9275 -28.6277 -0.0 0.0 -0.0 1.80303 -20.3064 -4.99879 -45.6839 38.0882 -52.9882 0.522985 14.5246 -0.0666464 0.911333 -0.0312173 0.112205 5.30109 3.03327 -36.8837 0.0 0.0 0.0 11.6842 6.41978 -5.84327 -26.8032 0.153176 4.07302 38.9435 -16.3634 -5.11695 40.1612 -0.0 -0.0 -0.0 0.0 -0.0 37.0777 11.3428 -5.70671 4.56006 0.214462 0.666585 11.7455 -13.3149 1.66698 40.3689 -0.0 -0.0 0.0 0.0 0.0 
1354.81588943 703.686 -1514.03519719 -23.8784361754 47.0914907796 21.736880064 8.30049 -0.228697 -1.98318 8.30267 -0.102065 -1.99371 8.30236 0.031339 -1.99607 8.29691 -0.284234 -1.97599 -13.4688 -5.96205 5.30908 -13.5375 -14.6393 3.22698 -0.0 0.0 -0.0 12.1892 -24.8551 23.9392 -21.1598 -9.45014 58.0187 2.19177 -47.3478 0.961024 20.5675 0.26048 -2.60032 -3.09976 -15.9275 -28.6277 -0.0 0.0 -0.0 1.80303 -20.3064 -4.99879 -45.6839 38.0882 -52.9882 0.522985 14.5246 -0.0666464 0.911333 -0.0312173 0.112205 5.30109 3.03327 -36.8837 0.0 0.0 0.0 11.6842 6.41978 -5.84327 -26.8032 0.153176 4.07302 38.9435 -16.3634 -5.11695 40.1612 -0.0 -0.0 -0.0 0.0 -0.0 37.0777 11.3428 -5.70671 4.56006 0.214462 0.666585 11.7455 -13.3149 1.66698 40.3689 -0.0 -0.0 0.0 0.0 0.0 
1333.00944446 713.788 -1549.20025158 -27.902152967 52.1315557024 26.9815392002 8.11454 -0.407537 -1.90131 8.1165 -0.285748 -1.92338 8.1226 -0.150655 -1.93864 8.11764 -0.454881 -1.89055 -14.6089 -9.35785 3.28705 -14.916 -19.843 -0.00216887 -0.0 0.0 -0.0 12.2484 -23.0536 24.2542 -25.0075 -10.6314 58.7817 2.12087 -46.4082 0.90927 30.0619 0.064438 -3.79592 -2.96594 -24.3641 -30.8739 -0.0 0.0 -0.0 1.80886 -20.4711 -5.01734 -43.4522 38.6239 -53.6392 0.635654 17.4785 -0.0977156 5.07492 -0.15096 0.630451 5.40078 -6.63497 -41.9333 0.0 0.0 0.0 16.7905 0.468235 -6.87272 -35.8661 -0.224928 5.41091 37.0375 -21.898 -5.15906 38.4975 -0.0 -0.0 -0.0 0.0 -0.0 39.769 9.06272 -6.67129 -9.2297 -0.26858 -1.38948 21.6219 -20.251 3.00985 29.1255 -0.0 -0.0 0.0 0.0 0.0 
1334.71558653 713.788 -1550.07575576 -27.1377581979 50.9666127487 26.0055362049 8.11454 -0.407537 -1.90131 8.1165 -0.285748 -1.92338 8.1226 -0.150655 -1.93864 8.11764 -0.454881 -1.89055 -14.6089 -9.35785 3.28705 -14.916 -19.843 -0.00216887 -0.0 0.0 -0.0 12.2484 -23.0536 24.2542 -25.0075 -10.6314 58.7817 2.12087 -46.4082 0.90927 30.0619 0.064438 -3.79592 -2.96594 -24.3641 -30.8739 -0.0 0.0 -0.0 1.80886 -20.4711 -5.01734 -43.4522 38.6239 -53.6392 0.635654 17.4785 -0.0977156 5.07492 -0.15096 0.630451 5.40078 -6.63497 -41.9333 0.0 0.0 0.0 16.7905 0.468235 -6.87272 -35.8661 -0.224928 5.41091 37.0375 -21.898 -5.15906 38.4975 -0.0 -0.0 -0.0 0.0 -0.0 39.769 9.06272 -6.67129 -9.2297 -0.26858 -1.38948 21.6219 -20.251 3.00985 29.1255 -0.0 -0.0 0.0 0.0 0.0 
1320.72187633 727.365 -1568.18023785 -26.9385572198 54.117711876 27.2857265133 7.54061 -0.519729 -2.05631 7.54288 -0.387857 -2.08519 7.5533 -0.220324 -2.10947 7.54751 -0.550641 -2.04825 -16.0863 -9.52939 0.519584 -16.439 -18.5656 -2.9241 -0.0 0.0 -0.0 13.4702 -25.9859 26.7685 -25.6968 -9.79762 60.3084 1.58489 -38.133 0.547813 39.7209 -0.334824 -4.96281 -2.50941 -28.0079 -28.7964 -0.0 0.0 -0.0 4.82893 -18.9001 -9.48975 -46.0537 36.5364 -48.4029 0.635612 17.4774 -0.0977029 10.7814 -0.253318 1.35191 5.64388 -8.54685 -44.8737 0.0 0.0 0.0 18.5016 -15.6363 -3.75365 -40.3685 -0.490377 6.04979 36.8178 -17.6788 -4.96425 33.4308 -0.0 -0.0 -0.0 0.0 -0.0 39.7768 7.12635 -7.63887 -12.8917 -0.312597 -1.94955 26.9409 -27.3679 3.80136 20.023 -0.0 -0.0 0.0 0.0 0.0 
1309.58478163 726.726 -1598.57195902 -27.3769312174 56.6105691406 27.8621741768 7.32551 -0.494063 -1.78755 7.32721 -0.379335 -1.81535 7.33654 -0.226367 -1.84069 7.33218 -0.514182 -1.78187 -16.8367 -9.41144 -1.25408 -17.1638 -17.3661 -4.65482 -0.0 0.0 -0.0 13.4769 -26.0941 26.7711 -27.0673 -11.0624 60.9109 1.37655 -34.2883 0.424662 43.8484 -0.564419 -5.43815 -2.66132 -27.7942 -29.8147 -0.0 0.0 -0.0 6.03223 -20.5723 -11.2479 -46.2957 36.041 -47.3379 0.643386 17.6779 -0.100051 12.3988 -0.269213 1.55787 5.46982 -8.57342 -43.2655 0.0 0.0 0.0 19.5998 -26.3002 -2.80184 -47.475 -1.00944 7.01114 38.8693 -14.5575 -5.05066 33.5474 -0.0 -0.0 -0.0 0.0 -0.0 38.4526 6.67781 -7.91789 -16.954 -0.319466 -2.57266 31.6206 -26.3434 4.32813 20.5872 -0.0 -0.0 0.0 0.0 0.0 
1300.25555734 720.005 -1623.52011734 -28.7125297556 59.6265194633 29.8428184466 7.16792 -0.475238 -1.59816 7.16926 -0.372594 -1.62515 7.17776 -0.23095 -1.65123 7.17428 -0.4888 -1.59406 -17.8223 -8.79016 -1.21758 -18.1367 -16.2405 -4.53237 -0.0 0.0 -0.0 13.1328 -27.2571 25.8294 -28.0955 -11.9898 61.1566 1.24387 -31.6392 0.352453 46.9725 -0.760697 -5.78641 -2.75385 -27.6433 -30.4338 -0.0 0.0 -0.0 6.8431 -21.9341 -12.3564 -47.226 35.3571 -47.2925 0.687977 18.8193 -0.114014 14.0422 -0.279403 1.76753 5.35138 -8.32347 -42.1036 0.0 0.0 0.0 20.737 -34.8374 -1.5398 -52.4244 -1.4398 7.63991 39.3327 -12.5108 -5.03208 33.6302 -0.0 -0.0 -0.0 0.0 -0.0 37.5709 6.25416 -8.96422 -19.7951 -0.298021 -3.008 35.1961 -25.5583 4.69899 21.0722 -0.0 -0.0 0.0 0.0 0.0 
1291.30759508 723.806 -1635.86629529 -30.977540006 61.8867207181 32.7071286858 7.07998 -0.440461 -1.36269 7.08094 -0.352865 -1.38794 7.08802 -0.229536 -1.41358 7.08551 -0.449883 -1.3596 -18.7316 -9.0097 -1.07633 -19.0996 -16.7765 -4.6355 -0.0 0.0 -0.0 13.0606 -27.2092 25.6691 -28.3787 -12.871 62.2508 1.13893 -29.4303 0.299123 48.9173 -0.892392 -5.99767 -2.89764 -27.7497 -31.5163 -0.0 0.0 -0.0 7.32965 -21.8626 -13.0834 -48.3616 34.2754 -46.5519 0.830122 22.3532 -0.164019 15.8853 -0.283673 2.0029 4.98651 -7.96695 -38.7895 0.0 0.0 0.0 24.7469 -41.5341 1.1764 -56.2313 -1.80707 8.09732 37.759 -11.3371 -4.85886 33.1084 -0.0 -0.0 -0.0 0.0 -0.0 36.8494 5.94473 -9.85242 -21.814 -0.269675 -3.31649 37.255 -26.2105 4.93448 20.8132 -0.0 -0.0 0.0 0.0 0.0 
1285.83886387 727.456 -1652.80389969 -33.3704686238 63.9521936565 35.2859249929 7.04969 -0.407791 -1.14374 7.05036 -0.33419 -1.16737 7.05614 -0.229641 -1.19235 7.0544 -0.415055 -1.14113 -19.3449 -9.70204 -1.46764 -19.7881 -17.9305 -5.39616 -0.0 0.0 -0.0 12.9715 -26.8881 25.5039 -30.0927 -13.3428 64.1788 1.0743 -28.0202 0.268063 50.5169 -1.00606 -6.16804 -3.02303 -27.763 -32.4421 -0.0 0.0 -0.0 7.59141 -21.2941 -13.5335 -46.6703 34.4566 -45.2355 0.938042 24.9229 -0.207301 17.1627 -0.28219 2.16604 4.67445 -7.74103 -36.1038 0.0 0.0 0.0 28.159 -44.9524 3.60638 -57.3379 -1.91949 8.22566 35.763 -11.4357 -4.67264 32.2613 -0.0 -0.0 -0.0 0.0 -0.0 36.3435 5.69296 -10.5278 -22.5229 -0.257146 -3.42454 36.9296 -26.8711 4.92272 20.0001 -0.0 -0.0 0.0 0.0 0.0 
1266.48663521 740.09 -1659.15120735 -36.2168853637 65.6980480418 38.8271032551 7.03249 -0.380668 -1.51422 7.03372 -0.283555 -1.53537 7.0395 -0.146203 -1.55447 7.03634 -0.389839 -1.51189 -19.7896 -10.716 -2.81702 -20.3029 -19.2177 -7.16519 -0.0 0.0 -0.0 12.902 -25.9977 25.451 -33.6809 -12.4935 67.665 1.02876 -27.0035 0.247022 51.3899 -1.0701 -6.25968 -3.1463 -28.0964 -33.4611 -0.0 0.0 -0.0 7.9266 -21.2475 -14.0456 -46.0415 34.3749 -44.3407 1.00468 26.4585 -0.236192 17.406 -0.281495 2.19711 4.22729 -6.44556 -32.072 0.0 0.0 0.0 31.9816 -47.2881 5.64021 -57.6792 -1.95466 8.26481 33.1948 -11.2377 -4.41174 31.2587 -0.0 -0.0 -0.0 0.0 -0.0 35.5736 5.56496 -10.9426 -23.0151 -0.24766 -3.49948 36.5839 -27.3479 4.90274 19.3535 -0.0 -0.0 0.0 0.0 0.0 
1226.51156256 741.123 -1672.29836205 -49.1514589745 69.4839968012 52.9385547432 7.24323 -0.202064 -1.39279 7.2443 -0.113037 -1.40282 7.24547 0.00687689 -1.40735 7.24277 -0.215453 -1.39078 -22.4926 -13.1274 -2.73935 -23.5349 -24.0492 -8.8838 -0.0 0.0 -0.0 12.3652 -25.2035 24.3054 -39.0485 -12.3061 70.597 0.950735 -25.2184 0.21268 54.3536 -1.29781 -6.56338 -3.15503 -25.3698 -32.635 -0.0 0.0 -0.0 10.4385 -18.3278 -18.4619 -44.793 33.4671 -40.5629 0.635417 17.4724 -0.0976443 21.291 -0.252544 2.69239 4.07114 -4.39123 -30.1119 0.0 0.0 0.0 36.2794 -49.7232 6.39901 -57.9652 -1.98432 8.29746 29.2328 -12.3529 -4.01329 30.4984 -0.0 -0.0 -0.0 0.0 -0.0 33.2216 -0.767313 -9.48496 -23.7342 -0.232645 -3.6088 35.4325 -23.8612 4.67599 16.5109 -0.0 -0.0 0.0 0.0 0.0 
1235.43921355 741.123 -1678.58865684 -44.397923262 67.7329721081 47.8343627717 7.24323 -0.202064 -1.39279 7.2443 -0.113037 -1.40282 7.24547 0.00687689 -1.40735 7.24277 -0.215453 -1.39078 -22.4926 -13.1274 -2.73935 -23.5349 -24.0492 -8.8838 -0.0 0.0 -0.0 12.3652 -25.2035 24.3054 -39.0485 -12.3061 70.597 0.950735 -25.2184 0.21268 54.3536 -1.29781 -6.56338 -3.15503 -25.3698 -32.635 -0.0 0.0 -0.0 10.4385 -18.3278 -18.4619 -44.793 33.4671 -40.5629 0.635417 17.4724 -0.0976443 21.291 -0.252544 2.69239 4.07114 -4.39123 -30.1119 0.0 0.0 0.0 36.2794 -49.7232 6.39901 -57.9652 -1.98432 8.29746 29.2328 -12.3529 -4.01329 30.4984 -0.0 -0.0 -0.0 0.0 -0.0 33.2216 -0.767313 -9.48496 -23.7342 -0.232645 -3.6088 35.4325 -23.8612 4.67599 16.5109 -0.0 -0.0 0.0 0.0 0.0 
1224.59209134 744.101 -1690.54292978 -48.7629549799 68.0445236016 52.562376938 7.61259 -0.186855 -1.33146 7.61357 -0.10176 -1.34065 7.61439 0.00416017 -1.3445 7.61193 -0.208211 -1.32829 -24.0996 -15.2901 -1.7037 -25.8461 -28.7022 -9.648 -0.0 0.0 -0.0 12.6058 -25.103 24.8695 -37.492 -12.0438 69.2747 0.662681 -18.1737 0.105989 56.2908 -1.45506 -6.75542 -2.79927 -22.0168 -28.7856 -0.0 0.0 -0.0 11.1788 -15.3066 -20.2616 -45.1721 33.4524 -40.3811 0.535918 14.868 -0.0699274 26.0735 -0.17093 3.29768 4.04324 -3.55086 -29.5805 0.0 0.0 0.0 37.076 -48.973 5.40298 -53.7065 -1.56007 7.79664 25.0158 -14.335 -3.56814 28.4361 -0.0 -0.0 -0.0 0.0 -0.0 30.4718 -10.3032 -8.04546 -21.0662 -0.281442 -3.20234 32.6813 -17.6738 4.25775 13.8877 -0.0 -0.0 0.0 0.0 0.0 
